<?xml version="1.0" encoding="UTF-8"?>
<svg version="1.1" xmlns="http://www.w3.org/2000/svg" width="1024" height="1024">
<path d="M0 0 C337.92 0 675.84 0 1024 0 C1024 337.92 1024 675.84 1024 1024 C686.08 1024 348.16 1024 0 1024 C0 686.08 0 348.16 0 0 Z " fill="#021223" transform="translate(0,0)"/>
<path d="M0 0 C20.97623388 -0.09052285 41.95230799 -0.16411104 62.92868805 -0.20724869 C72.66981533 -0.22781645 82.41081203 -0.25582554 92.15185547 -0.30175781 C100.64864207 -0.34180367 109.14533403 -0.36747479 117.64221239 -0.37635398 C122.13538877 -0.38153887 126.62829457 -0.39360251 131.12138367 -0.42292023 C135.36330231 -0.4503709 139.60484277 -0.45838615 143.84684181 -0.45243073 C145.39142231 -0.45351787 146.93601743 -0.46129338 148.48052025 -0.4768219 C172.65648788 -0.70766004 191.50378828 7.57766566 208.76586914 24.49121094 C210.86492336 26.56305476 212.95119474 28.64736394 215.03515625 30.734375 C216.1649426 31.86026061 217.29494693 32.98592752 218.42515564 34.11138916 C220.77910422 36.45792982 223.12921262 38.80823546 225.47680664 41.16113281 C228.45566834 44.14578265 231.44573638 47.11891489 234.43906498 50.08904648 C236.77208314 52.4071897 239.09798533 54.73237629 241.42202568 57.05951691 C242.52026946 58.15725438 243.62081467 59.25269526 244.72389412 60.34557343 C260.07561337 75.57262706 271.67537344 91.34145817 272.4375 113.875 C271.7459465 138.82625033 256.35169237 155.96273182 239.64453125 172.69140625 C238.45385638 173.88852918 237.26332273 175.08579258 236.07292175 176.28318787 C233.58949048 178.77851462 231.10204259 181.26975577 228.61206055 183.75854492 C225.45310165 186.91730081 222.30812915 190.08959241 219.16653919 193.26561069 C216.71533643 195.73926175 214.254882 198.2035556 211.79190636 200.66547966 C210.62989789 201.82981656 209.47105491 202.99732312 208.3157444 204.16830635 C193.63705017 219.02743333 177.47798057 230.90238555 155.729599 231.24050903 C152.82469109 231.25360974 149.92026368 231.24140122 147.01538086 231.22705078 C145.40816251 231.22648586 143.80094364 231.22680481 142.19372559 231.22793579 C137.85344206 231.22850714 133.51327019 231.21678825 129.1730125 231.20278788 C124.62865825 231.19024406 120.08430114 231.18910715 115.53993225 231.18673706 C106.94475216 231.18053299 98.34962325 231.16413675 89.75446564 231.14403808 C79.96484941 231.12164561 70.17523068 231.11067724 60.3855952 231.10064721 C40.25702861 231.07976953 20.12853211 231.04310675 0 231 C0 220.44 0 209.88 0 199 C7.13846558 198.98598145 7.13846558 198.98598145 14.42114258 198.97167969 C30.15522142 198.93789327 45.88916995 198.88253503 61.6231432 198.81609726 C71.16144391 198.77634656 80.69966259 198.74393393 90.23803711 198.72900391 C98.55504785 198.71596679 106.87187779 198.68894966 115.18878669 198.64538693 C119.58951687 198.62281835 123.99002445 198.60708655 128.39081764 198.60811615 C132.5400799 198.6088655 136.68885093 198.59080542 140.83798599 198.55883217 C142.35398426 198.55037165 143.87003788 198.54855687 145.38604927 198.55419731 C163.53928782 198.61269804 173.46535711 192.65303342 186.10767841 180.18800926 C187.68305774 178.62069805 189.25402644 177.04906924 190.82421875 175.4765625 C191.9401996 174.36447961 193.05639955 173.25261654 194.17280579 172.14096069 C196.49824356 169.82293612 198.81983301 167.50113934 201.13891602 165.17675781 C204.09231251 162.21755956 207.05694335 159.26990819 210.02479839 156.32522011 C212.32850167 154.03633369 214.62515032 151.74046668 216.91990089 149.44260788 C218.00946113 148.35355641 219.10134573 147.26682465 220.19571495 146.18260574 C230.08545699 136.37343471 238.65399038 126.97033969 239.4375 112.4375 C238.88111785 98.69727991 226.817881 88.49453984 217.79296875 79.45703125 C216.70195119 78.3595714 215.61107758 77.26196842 214.52033997 76.16423035 C212.24356959 73.87555073 209.9627712 71.59097445 207.67944336 69.30883789 C204.77112964 66.40072763 201.8768407 63.47907967 198.98588085 60.55373096 C196.74066851 58.28616485 194.4863057 56.0278652 192.2293644 53.77197838 C191.15895243 52.69922541 190.0917368 51.62327216 189.02797508 50.54392433 C183.25953181 44.69888163 177.71859441 39.14773438 170 36 C169.43299346 35.74483518 168.86598692 35.48967035 168.28179836 35.22677326 C160.80275324 32.24217069 153.11566037 32.55849681 145.19897461 32.56762695 C143.61145266 32.55859819 142.02393767 32.54826825 140.43643188 32.53674316 C136.14989278 32.50927775 131.86348634 32.49990294 127.57687068 32.49388909 C123.08851206 32.48447808 118.60025146 32.45827255 114.11195374 32.43388367 C105.62306564 32.39028983 97.13419664 32.36169922 88.64523083 32.33856028 C78.97646745 32.31147039 69.30780303 32.26756126 59.63911045 32.22227156 C39.75944633 32.12952718 19.87979171 32.06001972 0 32 C0 21.44 0 10.88 0 0 Z " fill="#FEFEFE" transform="translate(176,391)"/>
<path d="M0 0 C25.41 0 50.82 0 77 0 C77 6.6 77 13.2 77 20 C58.85 20 40.7 20 22 20 C22 29.24 22 38.48 22 48 C38.5 48 55 48 72 48 C72 54.93 72 61.86 72 69 C55.5 69 39 69 22 69 C22 78.24 22 87.48 22 97 C40.48 97 58.96 97 78 97 C78 103.6 78 110.2 78 117 C52.26 117 26.52 117 0 117 C0 78.39 0 39.78 0 0 Z " fill="#FDFDFD" transform="translate(481,395)"/>
<path d="M0 0 C9.75296387 5.26755823 15.94704292 12.51763631 19.6875 22.91015625 C21.91578045 30.94125037 21 38.44084687 21 47 C1.53 47 -17.94 47 -38 47 C-35.1434311 57.64527597 -35.1434311 57.64527597 -27.6875 64.3125 C-21.00539423 67.38401203 -12.41936745 67.25596005 -5.4296875 65.26953125 C-1.17550126 63.28801865 1.90212193 60.48511283 5 57 C8.68069887 58.53643852 10.98775204 60.78150945 13.75 63.625 C14.54921875 64.44226563 15.3484375 65.25953125 16.171875 66.1015625 C16.77515625 66.72804688 17.3784375 67.35453125 18 68 C14.34368549 76.27195907 6.79144485 79.90282857 -1.265625 83.0546875 C-11.85330845 86.71500092 -24.97689831 86.42354486 -35.390625 82.32421875 C-45.88152463 77.00024424 -54.26547698 68.20356906 -58 57 C-62.03477892 43.42008694 -60.70526807 29.93953078 -54.6796875 17.2109375 C-44.4173864 -1.35092951 -19.35337606 -9.27567213 0 0 Z " fill="#FCFCFD" transform="translate(778,429)"/>
<path d="M0 0 C61.63771186 0 61.63771186 0 78.8828125 16.6796875 C89.44887725 28.25947064 93.5607611 41.54976119 93.3125 57.01953125 C92.18041262 71.43949425 86.47157749 83.98733626 76 94 C54.34755813 112.36249487 27.37363827 108 0 108 C0 72.36 0 36.72 0 0 Z M14 12 C14 39.72 14 67.44 14 96 C44.55435273 96.82757591 44.55435273 96.82757591 68.73046875 82.5 C78.22015419 72.04664599 78.80546323 58.71857681 78.1953125 45.3359375 C77.36424776 35.39640325 71.90023662 27.54715505 64.875 20.8125 C50.42797284 9.03608143 31.46122628 12 14 12 Z " fill="#FAFAFB" transform="translate(480,531)"/>
<path d="M0 0 C10.65403214 6.83466213 15.85931109 15.08211912 18.7578125 27.203125 C19.22642382 31.8892382 19.0703125 36.61863952 19.0703125 41.328125 C-0.3996875 41.328125 -19.8696875 41.328125 -39.9296875 41.328125 C-37.64156271 51.62468655 -36.28385958 57.24562759 -27.83203125 63.19921875 C-21.79665182 66.78078888 -13.70973721 65.80860096 -6.9296875 65.328125 C-1.30877643 63.80717259 2.15894332 60.5747544 6.0703125 56.328125 C7.0603125 55.668125 8.0503125 55.008125 9.0703125 54.328125 C11.7103125 57.298125 14.3503125 60.268125 17.0703125 63.328125 C10.74173068 71.87391298 1.50762313 76.7398386 -8.9296875 78.328125 C-19.63480595 79.39863685 -30.42326031 77.85799162 -39.3671875 71.515625 C-49.63131828 62.87214645 -53.98557886 52.74192938 -55.1875 39.484375 C-55.63474423 28.15418773 -52.51185427 16.9380966 -44.9296875 8.328125 C-42.11476784 5.65660691 -39.17953458 3.44353979 -35.9296875 1.328125 C-34.98416016 0.67457031 -34.98416016 0.67457031 -34.01953125 0.0078125 C-24.8696327 -5.19471431 -9.27501972 -4.58903415 0 0 Z " fill="#F9FAFA" transform="translate(637.9296875,562.671875)"/>
<path d="M0 0 C17.82959592 0 17.82959592 0 24.54689026 6.55459595 C25.87139442 7.97003189 25.87139442 7.97003189 27.22265625 9.4140625 C28.18565454 10.38917174 29.15174096 11.36123977 30.12071228 12.33041382 C32.12664471 14.35323475 34.10339511 16.39943408 36.06079102 18.46923828 C38.56796058 21.11899229 41.12366986 23.71463838 43.70046329 26.29654884 C45.6891702 28.29492573 47.65860578 30.31139068 49.6218853 32.33472824 C51.01331382 33.76658543 52.41419273 35.18923946 53.81520081 36.61172485 C54.64454636 37.49218475 55.47389191 38.37264465 56.32836914 39.27978516 C57.06398575 40.04811676 57.79960236 40.81644836 58.55751038 41.60806274 C60 44 60 44 59.99432373 46.98278809 C58.81968082 50.54716704 57.37006898 52.3058459 54.76245117 54.99560547 C53.86028366 55.93612762 52.95811615 56.87664978 52.02861023 57.84567261 C51.03456777 58.85400035 50.03932271 59.86114375 49.04296875 60.8671875 C48.01917492 61.91214917 46.9956036 62.95732888 45.97224426 64.00271606 C43.82505324 66.18881788 41.66729977 68.3638723 39.50317383 70.53320312 C36.74444719 73.30258161 34.02700779 76.10895431 31.31788158 78.92675591 C29.21659826 81.0989866 27.08843151 83.24331501 24.95214272 85.38107681 C23.93884076 86.40391404 22.93530676 87.43653247 21.94240379 88.4791832 C20.54433276 89.94143131 19.10308446 91.36201457 17.66088867 92.78076172 C16.45295906 94.0060408 16.45295906 94.0060408 15.22062683 95.256073 C12 97 12 97 0 97 C0 64.99 0 32.98 0 0 Z " fill="#FD631D" transform="translate(323,458)"/>
<path d="M0 0 C37.62 0 75.24 0 114 0 C114 10.56 114 21.12 114 32 C76.38 32 38.76 32 0 32 C0 21.44 0 10.88 0 0 Z " fill="#FEFEFE" transform="translate(176,524)"/>
<path d="M0 0 C37.62 0 75.24 0 114 0 C114 10.56 114 21.12 114 32 C76.38 32 38.76 32 0 32 C0 21.44 0 10.88 0 0 Z " fill="#FAFBFB" transform="translate(176,457)"/>
<path d="M0 0 C7.26 0 14.52 0 22 0 C22 7.26 22 14.52 22 22 C29.26 22 36.52 22 44 22 C44 28.27 44 34.54 44 41 C36.74 41 29.48 41 22 41 C22.05102668 47.05176456 22.11392389 53.10094565 22.20751953 59.15185547 C22.23574049 61.21003898 22.25694941 63.2683311 22.27099609 65.32666016 C22.2924099 68.28604785 22.33905221 71.2441282 22.390625 74.203125 C22.39185364 75.12305237 22.39308228 76.04297974 22.39434814 76.99078369 C22.47538995 82.14573534 22.47538995 82.14573534 24.89233398 86.58569336 C27.43291854 88.29050123 28.77703086 88.45112772 31.8125 88.3125 C32.62332031 88.28800781 33.43414063 88.26351562 34.26953125 88.23828125 C37.52679938 87.95402752 40.76321395 87.46239801 44 87 C44 93.27 44 99.54 44 106 C34.25158895 109.11949154 24.34871273 111.36755534 14.625 107 C7.33018803 102.7773121 3.2085681 97.52392197 0.63606262 89.59494019 C-0.46708154 85.09445074 -0.36734228 80.66851906 -0.29296875 76.05859375 C-0.28872391 75.05031021 -0.28447906 74.04202667 -0.28010559 73.00318909 C-0.26344683 69.81434284 -0.22581877 66.626152 -0.1875 63.4375 C-0.17243661 61.26237898 -0.15875112 59.08724796 -0.14648438 56.91210938 C-0.1135853 51.60782423 -0.06189243 46.30402285 0 41 C-4.29 41 -8.58 41 -13 41 C-13 34.73 -13 28.46 -13 22 C-8.71 22 -4.42 22 0 22 C0 14.74 0 7.48 0 0 Z " fill="#FDFDFD" transform="translate(666,405)"/>
<path d="M0 0 C7.59 0 15.18 0 23 0 C23 38.94 23 77.88 23 118 C15.41 118 7.82 118 0 118 C0 79.06 0 40.12 0 0 Z " fill="#FCFCFC" transform="translate(576,394)"/>
<path d="M0 0 C4.51132654 2.80550825 8.28588882 6.53201213 12.03515625 10.265625 C11.13343157 11.44387858 10.21314123 12.60794077 9.28515625 13.765625 C8.7746875 14.4153125 8.26421875 15.065 7.73828125 15.734375 C6.03515625 17.265625 6.03515625 17.265625 2.03515625 17.265625 C0.55503984 16.06893514 -0.92656885 14.86754705 -2.3046875 13.5546875 C-8.02712934 9.11137972 -15.08699424 9.58388082 -21.96484375 10.265625 C-24.98601361 11.18463295 -25.73570516 11.85072486 -27.96484375 14.265625 C-29.29577535 17.66532311 -29.29577535 17.66532311 -28.96484375 21.265625 C-26.25049219 25.51164637 -23.79828097 27.12178158 -19.08984375 28.765625 C-17.94386719 29.17941406 -16.79789063 29.59320312 -15.6171875 30.01953125 C-13.17611239 30.85236864 -10.7307146 31.67263896 -8.28125 32.48046875 C8.23086474 38.04375391 8.23086474 38.04375391 12.53515625 46.578125 C15.06038259 53.3498082 14.96462371 58.80335325 12.09765625 65.453125 C8.17697634 72.56556968 1.35595949 76.55067895 -6.32421875 78.79296875 C-17.37709391 80.771368 -27.6794727 79.69018479 -37.3125 73.83984375 C-41.16662191 71.13286521 -43.91984145 68.61125489 -45.96484375 64.265625 C-44.67935966 62.92632995 -43.3862622 61.59433857 -42.08984375 60.265625 C-41.37054687 59.523125 -40.65125 58.780625 -39.91015625 58.015625 C-37.96484375 56.265625 -37.96484375 56.265625 -35.96484375 56.265625 C-35.06727424 57.3132799 -34.2211008 58.4052878 -33.40234375 59.515625 C-29.50054663 64.19588286 -24.93640549 66.59608969 -18.92578125 67.609375 C-13.24118046 67.88114874 -6.72770791 66.51124061 -2.25390625 62.875 C-0.12484918 60.2169045 -0.13966121 57.58715681 0.03515625 54.265625 C-0.89476853 51.4102089 -1.7371522 50.41729007 -4.2578125 48.73828125 C-9.96828416 45.95625659 -15.60045465 43.64997706 -21.65234375 41.765625 C-29.94953628 39.16330462 -37.01844651 35.68522086 -41.96484375 28.265625 C-44.21512093 23.76507065 -43.51914772 18.13678106 -42.96484375 13.265625 C-40.90594923 7.32549528 -37.02814228 3.87634496 -31.71484375 0.703125 C-22.60490127 -3.39123117 -9.3781977 -3.80348376 0 0 Z " fill="#FAFAFA" transform="translate(787.96484375,561.734375)"/>
<path d="M0 0 C4.95 0 9.9 0 15 0 C20.59623628 13.36492454 25.58702615 26.93510889 30.5 40.5625 C30.82067444 41.44704865 31.14134888 42.33159729 31.47174072 43.24295044 C32.39268852 45.78640697 33.30681676 48.33220571 34.21875 50.87890625 C34.4996347 51.65314941 34.78051941 52.42739258 35.06991577 53.22509766 C36.15375825 56.27440895 37 58.7381589 37 62 C37.66 62 38.32 62 39 62 C39.15734619 60.778573 39.15734619 60.778573 39.31787109 59.5324707 C40.12888591 55.33255183 41.45712957 51.49340822 42.9140625 47.48046875 C43.20679047 46.66363113 43.49951843 45.84679352 43.80111694 45.00520325 C44.42239289 43.27544651 45.04619736 41.54659611 45.67236328 39.81860352 C46.60734528 37.23626088 47.53283362 34.65067194 48.45703125 32.06445312 C52.34379448 21.2470338 56.52462499 10.58713954 61 0 C65.62 0 70.24 0 75 0 C74.28201977 3.58990114 73.58489207 6.36873011 72.28515625 9.70068359 C71.93388672 10.60708588 71.58261719 11.51348816 71.22070312 12.44735718 C70.83849609 13.42121368 70.45628906 14.39507019 70.0625 15.3984375 C69.66353516 16.42442047 69.26457031 17.45040344 68.85351562 18.50747681 C67.57283377 21.79815572 66.28649611 25.08659043 65 28.375 C64.16499402 30.51808482 63.33035513 32.66131271 62.49609375 34.8046875 C60.8355617 39.06877081 59.17127149 43.33135762 57.50390625 47.59277344 C55.79622836 51.95786186 54.09655538 56.3259569 52.40234375 60.69628906 C51.98791016 61.76271637 51.57347656 62.82914368 51.14648438 63.92788696 C50.3553811 65.96369586 49.56623949 68.0002684 48.77929688 70.03768921 C48.42802734 70.94000275 48.07675781 71.84231628 47.71484375 72.77197266 C47.40667725 73.56721344 47.09851074 74.36245422 46.78100586 75.18179321 C46 77 46 77 45 78 C42.46950598 78.07313567 39.96695163 78.09247527 37.4375 78.0625 C36.37112305 78.05573242 36.37112305 78.05573242 35.28320312 78.04882812 C33.52209987 78.03700864 31.76103964 78.01907263 30 78 C9.62924519 25.59864508 9.62924519 25.59864508 0 0 Z " fill="#FBFBFB" transform="translate(662,561)"/>
<path d="M0 0 C7.59 0 15.18 0 23 0 C23 28.05 23 56.1 23 85 C15.41 85 7.82 85 0 85 C0 56.95 0 28.9 0 0 Z " fill="#FBFBFB" transform="translate(618,427)"/>
<path d="M0 0 C6.44197826 3.80357968 10.2573925 9.46621124 12.625 16.4375 C12.625 17.7575 12.625 19.0775 12.625 20.4375 C-2.555 20.4375 -17.735 20.4375 -33.375 20.4375 C-32.2048888 12.24672163 -29.75010147 7.64796237 -23.8125 2 C-16.74630935 -2.52960939 -7.77870958 -3.49217598 0 0 Z " fill="#051424" transform="translate(631.375,572.5625)"/>
<path d="M0 0 C3.46653068 2.01259323 6.009484 4.56302826 7.890625 8.09765625 C8.550625 11.06765625 9.210625 14.03765625 9.890625 17.09765625 C-2.979375 17.09765625 -15.849375 17.09765625 -29.109375 17.09765625 C-26.58623997 5.7435486 -26.58623997 5.7435486 -21.109375 1.09765625 C-14.16816608 -2.88711183 -7.26964406 -3.07671944 0 0 Z " fill="#071423" transform="translate(769.109375,444.90234375)"/>
<path d="M0 0 C3.18618806 2.09998758 4.35911202 3.2580085 5.75 6.8125 C6.31330252 11.11550533 6.22785179 14.65559567 4.5625 18.6875 C1.9132205 21.79355182 -0.23995545 23.50783521 -4.36328125 24.1328125 C-9.8168933 24.40778454 -12.98358919 23.45455801 -17.25 19.8125 C-20.22307695 15.35288458 -19.87015709 11.04172586 -19.25 5.8125 C-17.45805441 2.56045059 -16.12569763 1.30951757 -12.9375 -0.5 C-8.23461778 -1.70306289 -4.57354857 -1.67110428 0 0 Z " fill="#FAFBFB" transform="translate(636.25,395.1875)"/>
<path d="M0 0 C18.15 0.33 36.3 0.66 55 1 C55 1.33 55 1.66 55 2 C37.84 2 20.68 2 3 2 C3 10.25 3 18.5 3 27 C2.01 27.33 1.02 27.66 0 28 C0 18.76 0 9.52 0 0 Z " fill="#0F1C29" transform="translate(503,415)"/>
<path d="M0 0 C5.08761106 3.25041818 7.22758143 7.37578912 9 13 C9 14.32 9 15.64 9 17 C-6.18 17 -21.36 17 -37 17 C-37 16.34 -37 15.68 -37 15 C-22.48 15 -7.96 15 7 15 C4.00668265 5.61276335 4.00668265 5.61276335 0 2 C0 1.34 0 0.68 0 0 Z " fill="#01060F" transform="translate(635,576)"/>
<path d="M0 0 C18.315 0.495 18.315 0.495 37 1 C37 1.33 37 1.66 37 2 C25.78 2 14.56 2 3 2 C3 10.25 3 18.5 3 27 C2.01 27.33 1.02 27.66 0 28 C0 18.76 0 9.52 0 0 Z " fill="#101D2A" transform="translate(503,464)"/>
<path d="M0 0 C4.98517503 4.20784748 9.81620142 8.52138016 14.5 13.0625 C15.14453125 13.66126953 15.7890625 14.26003906 16.453125 14.87695312 C18.14054927 16.52291291 19.66624021 18.05590519 21 20 C20.90625 22.93359375 20.90625 22.93359375 20 25 C19.73058594 24.41347656 19.46117187 23.82695312 19.18359375 23.22265625 C15.55306063 16.40492243 9.08818661 10.98488081 3.55688477 5.68139648 C2.33483347 4.49053195 1.16268716 3.24889001 0 2 C0 1.34 0 0.68 0 0 Z " fill="#F76E20" transform="translate(362,482)"/>
<path d="M0 0 C1.32 0.66 2.64 1.32 4 2 C-1.24385089 3.7479503 -5.47322267 4.19392201 -11 4 C-10.67 3.01 -10.34 2.02 -10 1 C-9.36191406 1.01160156 -8.72382812 1.02320313 -8.06640625 1.03515625 C-7.24011719 1.04417969 -6.41382813 1.05320312 -5.5625 1.0625 C-4.32693359 1.07990234 -4.32693359 1.07990234 -3.06640625 1.09765625 C-1.00836062 1.23267348 -1.00836062 1.23267348 0 0 Z " fill="#0F1824" transform="translate(778,626)"/>
<path d="M0 0 C0.66 0.66 1.32 1.32 2 2 C1.96712417 4.72869407 1.43602229 7.2966618 1 10 C0.01 10 -0.98 10 -2 10 C-1.34 6.7 -0.68 3.4 0 0 Z " fill="#121A25" transform="translate(446,516)"/>
<path d="M0 0 C0.66 0.33 1.32 0.66 2 1 C1.67 3.31 1.34 5.62 1 8 C0.34 8 -0.32 8 -1 8 C-1.625 5.125 -1.625 5.125 -2 2 C-1.34 1.34 -0.68 0.68 0 0 Z " fill="#0A111A" transform="translate(700,615)"/>
</svg>
